<svg viewBox="0 0 96 96" xmlns="http://www.w3.org/2000/svg">
  <defs>
    <linearGradient id="g1" x1="0%" y1="0%" x2="100%" y2="100%">
      <stop offset="0%" stop-color="#0D3D9E"/>
      <stop offset="45%" stop-color="#1A56C4"/>
      <stop offset="100%" stop-color="#3F8CEF"/>
    </linearGradient>
  </defs>

  <!-- 背景 -->
  <rect width="96" height="96" rx="20" fill="url(#g1)"/>

  <!-- 回路ライン -->
  <path d="M-2 12 H16 L22 6 H46" stroke="white" stroke-width="1" stroke-opacity=".28" fill="none"/>
  <circle cx="16" cy="12" r="1.5" fill="white" fill-opacity=".5"/>
  <circle cx="46" cy="6" r="1.2" fill="white" fill-opacity=".5"/>

  <path d="M54 4 H70 L78 14 H98" stroke="white" stroke-width="1" stroke-opacity=".28" fill="none"/>
  <circle cx="70" cy="4" r="1.5" fill="white" fill-opacity=".5"/>
  <circle cx="78" cy="14" r="1.2" fill="white" fill-opacity=".5"/>

  <path d="M-2 92 H14 L22 84 H40" stroke="white" stroke-width="1" stroke-opacity=".28" fill="none"/>
  <circle cx="14" cy="92" r="1.5" fill="white" fill-opacity=".5"/>
  <circle cx="40" cy="84" r="1.2" fill="white" fill-opacity=".5"/>

  <path d="M52 92 H70 L78 86 H98" stroke="white" stroke-width="1" stroke-opacity=".28" fill="none"/>
  <circle cx="70" cy="92" r="1.5" fill="white" fill-opacity=".5"/>
  <circle cx="78" cy="86" r="1.2" fill="white" fill-opacity=".5"/>

  <!-- トラック本体 -->
  <rect x="4" y="20" width="56" height="56" rx="4" fill="white"/>
  <!-- 運転席 -->
  <path d="M60 30 L78 30 L90 46 L90 76 L60 76 Z" fill="white"/>
  <!-- フロントガラス -->
  <path d="M62 32 L77 32 L86 46 L62 46 Z" fill="#1A56C4"/>

  <!-- H イニシャル -->
  <g fill="#1A56C4">
    <rect x="10" y="26" width="11" height="44" rx="2"/>
    <rect x="43" y="26" width="11" height="44" rx="2"/>
    <rect x="10" y="42" width="44" height="12"/>
  </g>

  <!-- タイヤ -->
  <circle cx="22" cy="82" r="9" fill="#13294B"/>
  <circle cx="22" cy="82" r="4" fill="white"/>
  <circle cx="22" cy="82" r="1.5" fill="#13294B"/>
  <circle cx="72" cy="82" r="9" fill="#13294B"/>
  <circle cx="72" cy="82" r="4" fill="white"/>
  <circle cx="72" cy="82" r="1.5" fill="#13294B"/>

  <!-- ヘッドライト -->
  <circle cx="87" cy="64" r="2.2" fill="#FFD54F"/>
</svg>
